<?xml version="1.0" encoding="UTF-8"?><svg id="b" xmlns="http://www.w3.org/2000/svg" width="30.2559" height="31.1232" viewBox="0 0 30.2559 31.1232"><g id="c"><path d="m30.2559,13.9212c0,.6091-.4941,1.103-1.103,1.103-.6096,0-1.103-.4939-1.103-1.103,0-3.1291-1.2187-6.0713-3.4317-8.2842-2.2121-2.2122-5.1543-3.4309-8.2834-3.4309-.6091,0-1.103-.494-1.103-1.103s.4939-1.1031,1.103-1.1031c3.7182,0,7.2142,1.4478,9.8437,4.0774,2.6297,2.6289,4.0774,6.125,4.0774,9.8438Zm-8.6151,0c0,.6091.4941,1.103,1.1038,1.103.609,0,1.1022-.4939,1.1022-1.103,0-4.1417-3.3695-7.5112-7.512-7.512-.6091,0-1.103.494-1.103,1.103s.4939,1.1031,1.103,1.1031c2.9261.0008,5.306,2.3805,5.306,5.3059Zm-2.4405,5.624c-1.6812-.0873-2.5376,1.1636-2.9483,1.764-.3439.5027-.2152,1.1889.2873,1.5329.5032.3446,1.1895.2151,1.5335-.2873.4849-.7092.7047-.8212,1.0034-.8073.9544.1126,4.7147,2.8679,5.0908,3.7287.0944.2544.0912.5027-.0107.8052-.3944,1.1719-1.0478,1.9947-1.8896,2.3806-.7997.3669-1.7802.3339-2.835-.0957-3.9379-1.6048-7.3788-3.8452-10.2261-6.658-.0008-.0008-.0022-.0023-.003-.0031-2.8075-2.845-5.0433-6.2803-6.6458-10.213-.429-1.0556-.4626-2.0361-.0957-2.8357.386-.8419,1.2095-1.4953,2.3798-1.8896.3034-.102.5516-.1051.8028-.0116.8648.3785,3.6201,4.138,3.7313,5.0816.0161.3095-.0967.5293-.806,1.0134-.5031.344-.6317,1.0303-.2886,1.5335.3438.5026,1.0301.632,1.5335.2881.6004-.4099,1.8505-1.2647,1.764-2.9515-.0957-1.7625-3.5236-6.4289-5.1611-7.031-.7286-.2719-1.4953-.2764-2.2791-.0131-1.7625.5938-3.0363,1.6523-3.6821,3.0611-.6265,1.3665-.6067,2.9528.0583,4.5866,1.7151,4.2084,4.114,7.8906,7.1314,10.9439.0076.0076.0153.0152.0229.0221,3.0518,3.0121,6.7294,5.4073,10.9315,7.12.8412.3424,1.67.5132,2.4627.5132.7462,0,1.4607-.1516,2.1233-.4557,1.4096-.6457,2.4681-1.9188,3.0617-3.6829.2627-.7822.2582-1.5482-.0114-2.2735-.6035-1.6423-5.2708-5.0702-7.0357-5.1659Z"/></g></svg>