<?xml version="1.0" encoding="UTF-8"?><svg id="b" xmlns="http://www.w3.org/2000/svg" width="31.9822" height="21.7582" viewBox="0 0 31.9822 21.7582"><g id="c"><path d="m26.3491,4.2282l-10.3574,9.1267L5.633,4.2282c-.4125-.3635-1.0413-.3234-1.4042.0884-.3633.4126-.324,1.0414.0885,1.4048l11.0174,9.7059c.1879.1657.4228.2487.6577.2487s.4698-.083.6579-.2487l11.0145-9.7059c.4126-.3634.4518-.9922.0885-1.4048-.3635-.4118-.9917-.4519-1.4042-.0884h0Zm2.6479-4.2282H2.9851C1.3391,0,0,1.3384,0,2.9852v15.7879c0,1.6458,1.3391,2.9851,2.9851,2.9851h26.0119c1.6461,0,2.9852-1.3393,2.9852-2.9851V2.9852c0-1.6461-1.3391-2.9852-2.9852-2.9852h0Zm.9951,18.7731c0,.5485-.4465.995-.9951.995H2.9851c-.5487,0-.995-.4465-.995-.995V2.9852c0-.5488.4463-.9951.995-.9951h26.0119c.5486,0,.9951.4463.9951.9951v15.7879Z"/></g></svg>