<?xml version="1.0" encoding="UTF-8"?><svg id="b" xmlns="http://www.w3.org/2000/svg" width="23.3146" height="14.2138" xmlns:xlink="http://www.w3.org/1999/xlink" viewBox="0 0 23.3146 14.2138"><defs><style>.e{fill:url(#d);}</style><linearGradient id="d" x1="0" y1="7.1069" x2="23.3146" y2="7.1069" gradientUnits="userSpaceOnUse"><stop offset="0" stop-color="#b19760"/><stop offset="1" stop-color="#ddc491"/></linearGradient></defs><g id="c"><path class="e" d="m23.1021,9.0712c.1319-.1798.2124-.3995.2125-.6398,0-.0795-.0096-.1566-.0258-.2313-.0461-.213-.1544-.4022-.305-.5488-.1962-.1909-.4633-.3094-.7587-.3095-.0596,0-.117.0083-.174.0176-.2171.0351-.4117.133-.5657.2762-.2139.1989-.3498.4805-.3498.7958,0,.3165.1373.5984.352.7958-.4567.5214-.8929,1.0576-1.3941,1.4934-.2595.2259-.5002.3151-.6944.3147-.1701-.0013-.3153-.062-.4494-.1957-.1327-.1337-.2481-.3476-.3129-.6429-.0928-.4212-.127-.8461-.127-1.2762-.0002-.6995.0914-1.4121.1631-2.1348l.0041-.0292c.0114-.1036.0282-.2108.0446-.3176.0807-.0078.1581-.0254.2331-.0487.4686-.1457.8102-.577.8103-1.0937-.0001-.6371-.5164-1.1533-1.1535-1.1534-.6371.0001-1.1533.5163-1.1535,1.1534.0001.2706.1016.5113.2581.7061.0884.11.1896.2094.312.2814-.0306.0809-.0633.1599-.095.2397-.4468,1.1251-1.0152,2.1497-1.9499,2.9351-.0825.0694-.1651.1358-.2487.1966-.3838.2792-.7223.4041-1.0072.4034-.1124-.0004-.2185-.0204-.3223-.0582-.0839-.0305-.1665-.072-.249-.1296-.1266-.0889-.2523-.2164-.3745-.3801-.0552-.074-.1099-.1531-.1632-.2432-.2964-.5001-.5282-1.0599-.701-1.6243-.2476-.8076-.4213-1.632-.5576-2.4656-.0977-.5979-.176-1.2006-.2464-1.8057-.0368-.3161-.0723-.6326-.1069-.9496.5074-.1496.8796-.6156.8799-1.1734-.0004-.614-.4511-1.1175-1.0376-1.2097v-.0004s-.0031-.0003-.0031-.0003l-.0026-.0006v.0004c-.0584-.0102-.1186-.0169-.1808-.0181h-.0049S11.6526.0001,11.6526.0001c-.0622.0013-.1224.0079-.1808.0181v-.0004s-.0027.0006-.0027.0006l-.0032.0003v.0004c-.2446.0385-.4627.1514-.6373.3112-.1254.1147-.2263.254-.2953.4119-.0652.1494-.1047.3126-.1049.4865.0002.5263.3333.9674.7969,1.1416l.083.0319c-.0047.0432-.0096.0863-.0143.1296-.0606.5541-.1235,1.1071-.1965,1.6573-.019.1433-.0392.2864-.0599.4292-.0871.6021-.19,1.2001-.3222,1.7913-.0815.3644-.1751.7259-.2814,1.0846-.0127.0428-.0233.0862-.0364.1289-.1729.5644-.4047,1.1242-.701,1.6244-.1715.2897-.3539.4943-.5377.6234-.1847.1289-.368.187-.5712.1878l-.097-.0102c-.1386-.0125-.2882-.053-.449-.1247-.1458-.0651-.2984-.15-.4611-.2684-.0836-.0608-.1662-.1272-.2487-.1966-1.0011-.8411-1.5838-1.9552-2.0449-3.1749.3388-.1994.5698-.5639.5701-.9874-.0002-.6371-.5164-1.1533-1.1535-1.1534-.6371.0001-1.1534.5163-1.1535,1.1534.0001.5994.4588,1.086,1.0434,1.1423.0179.1167.0377.2347.0487.3469.0718.7228.1634,1.4353.1631,2.1348,0,.4301-.0343.855-.127,1.2762-.0649.2953-.1803.5091-.3129.6429-.1341.1336-.2793.1944-.4494.1957-.1943.0004-.435-.0888-.6944-.3147-.1518-.132-.2966-.2751-.4388-.4223-.2533-.2621-.4967-.5414-.7405-.8235-.0714-.0826-.1426-.1653-.2147-.2476l.0937-.105c.141-.1673.2312-.376.2493-.6082l.0089-.0826c0-.2839-.1112-.5401-.289-.734-.1498-.1634-.3467-.2823-.5715-.3305-.074-.0159-.1504-.0251-.229-.0251-.6018.0001-1.0894.4877-1.0895,1.0896.0002.5955.4779,1.0773,1.0709,1.0876l1.4979,4.1932.0014-.0005c.0416.1427.1106.2708.2203.3628.1133.0962.261.1405.4044.1393.0688,0,.1378-.0089.2075-.0246.0804-.0182.1578-.0395.2366-.0596.0719-.0184.1452-.0354.216-.0544.0684-.0184.1376-.032.206-.05.3504-.0918.7021-.1757,1.0543-.2557.2166-.0492.4336-.096.651-.1406,1.4904-.3058,2.9966-.509,4.5225-.5825.4549-.0219.9093-.0297,1.3638-.0297h.0096c.4545,0,.9088.0078,1.3638.0297.6634.032,1.3221.0947,1.9787.1721.1594.0188.318.0423.477.0637.9267.1245,1.8473.289,2.7611.4978.1663.038.3319.0801.4978.1207.2397.0588.4804.1102.7192.1744.1483.0399.2989.0793.4525.1141.0697.0157.1387.0246.2075.0247.1434.0012.2911-.0431.4045-.1393.1096-.092.1787-.2201.2203-.3628l.0013.0005.9585-2.6833.3296-.9227.2098-.5872c.2173-.0038.4184-.0719.5869-.1847.1057-.0708.1964-.1607.2715-.2631Zm-4.4907-4.4755c.387.0007.7002.3139.7009.7009-.0007.3851-.3109.6966-.6953.7003l-.0698-.007-.0883-.0089-.0722-.0246c-.2774-.0952-.4764-.353-.4761-.6597.0007-.387.3139-.7002.7009-.7009Zm-7.7304-3.3667c-.0002-.165.0538-.3158.1421-.441.1191-.1689.3026-.2898.517-.3227l.0031-.0005.0027-.0005.1114-.0113.1114.0113.0026.0005.0033.0005c.3733.0573.6595.376.6591.7637.0003.4006-.3054.7268-.6978.7673l-.0786.008-.0786-.008-.0458-.009c-.3696-.0605-.6523-.3737-.652-.7583Zm-6.1833,4.7679c-.3844-.0038-.6947-.3152-.6953-.7003.0007-.387.3139-.7002.7009-.7009.387.0007.7002.3139.7009.7009.0003.3067-.1988.5645-.4761.6597l-.0722.0246-.1582.0159Zm-3.3107,2.9934l-.0954.051-.1012.0162c-.0429.007-.0754.011-.1009.0109-.3517-.0006-.6363-.2853-.637-.637.0006-.3517.2853-.6363.637-.637.1691.0003.3218.0674.4358.175.123.1161.2009.2794.2012.462l-.0124.0883c-.0292.2029-.1499.3753-.3271.4706Zm19.5823,2.7508l-.6525,1.8266-.0023.0085c-.0246.0887-.0562.1309-.081.1516-.0253.02-.0513.0324-.1138.0336-.0292,0-.0653-.0039-.1077-.0135-.1438-.0325-.2886-.0703-.4348-.1097-.1502-.0404-.3019-.0715-.4525-.1097-.1656-.0421-.3318-.0812-.4978-.1207-1.0909-.2595-2.1915-.4618-3.302-.6028-.1592-.0202-.3174-.046-.477-.0637-.5973-.066-1.197-.1177-1.8002-.1468-.4643-.0223-.9259-.0303-1.3856-.0303h-.0096c-.4597,0-.9213.0079-1.3856.0303-1.3799.0665-2.7422.2426-4.0916.4969-.2118.0399-.4242.0757-.6353.12-.5445.1141-1.0867.2421-1.6265.3842-.0585.0154-.1177.027-.1762.0427-.0826.0222-.1639.0414-.2458.062-.0629.0158-.1265.0335-.189.0477-.0424.0096-.0786.0135-.1077.0135-.0624-.0012-.0884-.0136-.1138-.0336-.0248-.0206-.0564-.0629-.081-.1516l-.0023-.0082-1.3979-3.9131c.2634.304.5312.6166.8181.9166.1615.1689.3274.3349.5059.4906.0533.0465.1081.0839.1626.1231.27.194.5516.3025.8291.3028.2903.0013.5647-.1191.7713-.3301.2079-.2108.3539-.5051.433-.8637.1015-.4609.1376-.9196.1376-1.3735-.0002-.6155-.0656-1.2223-.1283-1.8207.44,1.0081,1.0152,1.9521,1.9111,2.7054.0873.0734.178.1466.2738.2162.1504.1092.2995.1949.4482.2691.1412.0705.2816.1251.4213.1612.1352.035.27.0593.4038.0595.2956.0008.5808-.0927.8316-.2702.2516-.1773.4716-.4337.6667-.7629.3188-.5384.5628-1.13.7444-1.7224.1212-.3956.2225-.794.3131-1.1938.0734-.3241.1401-.649.198-.9749.0541-.3045.0998-.6097.1438-.9151.0206-.1431.0414-.286.0604-.4292.0381-.2882.075-.5764.1084-.8644l.0099.0235c.0336.2893.0704.5788.1089.8682.0197.1481.042.296.0635.444.009.0616.0194.1231.0288.1847.0299.1978.0582.3956.0925.593.132.7598.2981,1.5163.527,2.2639.1815.5924.4255,1.1841.7444,1.7224.1951.3292.4151.5856.6667.7629.0532.0376.1087.0694.1647.0994.1605.0858.3315.1385.5082.1585.0526.006.1053.0124.1587.0123.4177-.0007.8418-.1765,1.2732-.4899.0958-.0696.1865-.1428.2738-.2162.8959-.7533,1.4711-1.6973,1.9111-2.7054-.0627.5984-.1281,1.2052-.1283,1.8207,0,.454.0361.9126.1376,1.3735.0791.3586.2252.6528.433.8637.2065.211.481.3314.7713.3301.3335-.0004.6741-.1492.9917-.4259.4957-.4323.9123-.932,1.324-1.4072l-.4157,1.1637-.3296.9226Zm1.2557-2.6727c-.0254.0001-.058-.004-.1009-.0109l-.1012-.0162-.0954-.051c-.2029-.1091-.3396-.3167-.3395-.5589.0005-.2963.2035-.5428.4775-.6142.0512-.0134.1041-.0227.1595-.0228.1927.0004.3632.0878.48.223.0963.1115.1567.255.157.414-.0006.3517-.2853.6363-.637.637Z"/></g></svg>