<?xml version="1.0" encoding="UTF-8"?><svg id="b" xmlns="http://www.w3.org/2000/svg" width="36" height="22.4086" xmlns:xlink="http://www.w3.org/1999/xlink" viewBox="0 0 36 22.4086"><defs><style>.h{fill:url(#f);}.i{fill:url(#g);}.j{fill:url(#e);}</style><linearGradient id="e" x1="6.5263" y1="22.4051" x2="6.529" y2="22.4051" gradientUnits="userSpaceOnUse"><stop offset="0" stop-color="#b19760"/><stop offset="1" stop-color="#ddc491"/></linearGradient><linearGradient id="f" x1="0" y1="10.9738" x2="36" y2="10.9738" xlink:href="#e"/><linearGradient id="g" x1="6.526" y1="22.4012" x2="6.5263" y2="22.4012" xlink:href="#e"/></defs><g id="c"><g id="d"><polygon class="j" points="6.5263 22.4016 6.5288 22.4086 6.529 22.4086 6.5263 22.4016"/><path class="h" d="m35.6719,14.0068c.2036-.2776.328-.6168.3281-.988,0-.1228-.0148-.2418-.0398-.3571-.0712-.3289-.2383-.6211-.471-.8474-.303-.2947-.7153-.4778-1.1715-.4779-.092,0-.1806.0129-.2686.0271-.3352.0542-.6357.2054-.8736.4265-.3303.3071-.5401.7419-.5402,1.2287,0,.4888.2121.9241.5435,1.2289-.7052.8051-1.3787,1.633-2.1527,2.306-.4007.3488-.7723.4865-1.0723.4859-.2627-.002-.4869-.0958-.6939-.3021-.2049-.2065-.3831-.5367-.4832-.9926-.1433-.6504-.1962-1.3065-.1962-1.9706-.0003-1.0802.1411-2.1803.2519-3.2964l.0063-.0451c.0176-.1599.0436-.3255.0689-.4905.1245-.012.2442-.0392.3599-.0752.7235-.2249,1.251-.8909,1.2512-1.6888-.0002-.9838-.7973-1.7808-1.7811-1.781-.9838.0002-1.7809.7972-1.7811,1.781.0002.4179.1568.7895.3985,1.0902.1365.1699.2928.3233.4817.4345-.0472.1248-.0978.2469-.1467.3702-.6899,1.7372-1.5676,3.3194-3.0108,4.5321-.1274.1071-.2549.2097-.384.3035-.5926.4312-1.1153.624-1.5551.6229-.1736-.0006-.3373-.0315-.4976-.0898-.1296-.0471-.257-.1111-.3845-.2001-.1955-.1372-.3896-.3342-.5782-.587-.0852-.1142-.1697-.2363-.252-.3756-.4576-.7723-.8156-1.6367-1.0825-2.5081-.3823-1.247-.6506-2.5199-.8609-3.8072-.1509-.9232-.2717-1.8538-.3805-2.7882-.0568-.4881-.1117-.9767-.165-1.4662.7835-.231,1.3582-.9506,1.3586-1.8119-.0006-.9481-.6966-1.7255-1.6022-1.8678v-.0007s-.0049-.0005-.0049-.0005l-.0041-.001v.0006c-.0902-.0158-.1832-.0261-.2792-.028l-.0076-.0002-.007.0002c-.096.002-.189.0122-.2792.028v-.0006s-.0041.001-.0041.001l-.005.0005v.0007c-.3776.0594-.7145.2338-.9841.4805-.1936.1771-.3495.3922-.456.6361-.1007.2307-.1617.4827-.1619.7513.0004.8127.5147,1.4937,1.2306,1.7627l.1281.0492c-.0073.0668-.0148.1333-.0221.2001-.0935.8556-.1907,1.7094-.3034,2.559-.0293.2213-.0605.4422-.0925.6628-.1345.9297-.2934,1.8531-.4976,2.766-.1258.5626-.2704,1.1209-.4346,1.6747-.0196.0662-.036.133-.0563.1991-.2669.8715-.6249,1.7359-1.0825,2.5082-.2647.4473-.5465.7633-.8303.9625-.2851.199-.5682.2887-.8821.2899l-.1498-.0157c-.214-.0194-.445-.0818-.6933-.1926-.2251-.1005-.4608-.2317-.712-.4145-.1292-.0939-.2566-.1964-.384-.3035-1.5457-1.2988-2.4456-3.0191-3.1576-4.9023.5232-.3079.8799-.8707.8802-1.5247-.0003-.9838-.7973-1.7808-1.7811-1.781-.9838.0002-1.7809.7972-1.7811,1.781.0002.9256.7084,1.6769,1.6111,1.7639.0277.1801.0582.3624.0752.5356.1108,1.116.2522,2.2162.2519,3.2964,0,.6641-.0529,1.3202-.1961,1.9706-.1001.456-.2783.7861-.4832.9926-.207.2063-.4312.3001-.6939.3021-.3.0006-.6716-.1371-1.0723-.4859-.2345-.2038-.458-.4248-.6776-.6521-.3911-.4047-.7669-.8359-1.1435-1.2716-.1103-.1276-.2202-.2552-.3316-.3824l.1447-.1622c.2177-.2583.357-.5806.385-.9392l.0138-.1275c0-.4384-.1717-.834-.4463-1.1333-.2313-.2522-.5353-.4359-.8824-.5103-.1142-.0245-.2322-.0387-.3537-.0388-.9293.0002-1.6821.7531-1.6823,1.6824.0003.9195.7379,1.6635,1.6536,1.6794l2.3129,6.4747.0021-.0007c.0642.2203.1708.4181.3401.5602.175.1486.4031.2169.6245.2151.1062,0,.2128-.0138.3204-.038.1241-.0281.2437-.061.3654-.0921.111-.0284.2242-.0546.3335-.084.1057-.0284.2124-.0494.3181-.0772.5411-.1418,1.0841-.2714,1.6279-.3948.3345-.076.6696-.1482,1.0051-.2171,2.3014-.4721,4.627-.786,6.9832-.8995.7025-.0338,1.404-.0459,2.1058-.0459h.0148c.7018,0,1.4033.0121,2.1058.0459,1.0244.0493,2.0415.1463,3.0552.2657.2461.029.491.0654.7365.0984,1.4309.1923,2.8524.4463,4.2634.7687.2568.0587.5126.1236.7687.1864.3701.0907.7418.1702,1.1105.2693.229.0616.4615.1225.6987.1761.1076.0243.2142.038.3204.0381.2214.0018.4495-.0665.6245-.2151.1693-.142.2759-.3399.3401-.5602l.002.0007,1.4801-4.1433.509-1.4247.3239-.9067c.3355-.0058.6461-.1111.9062-.2852.1633-.1093.3032-.2482.4192-.4063Zm-6.9341-6.9107c.5976.0011,1.0812.4846,1.0823,1.0822-.0011.5947-.4801,1.0756-1.0736,1.0814l-.1078-.0109-.1364-.0138-.1115-.038c-.4283-.147-.7356-.5451-.7352-1.0187.0011-.5976.4847-1.0812,1.0823-1.0822ZM16.8013,1.8976c-.0003-.2548.0831-.4876.2194-.6809.184-.2608.4672-.4474.7982-.4983l.0048-.0008.0042-.0008.172-.0174.172.0174.004.0007.005.0008c.5764.0885,1.0183.5806,1.0177,1.1792.0005.6186-.4716,1.1223-1.0774,1.1848l-.1213.0124-.1213-.0124-.0707-.0139c-.5708-.0935-1.0073-.577-1.0068-1.1709Zm-9.5476,7.3621c-.5936-.0058-1.0726-.4867-1.0737-1.0814.0011-.5976.4847-1.0812,1.0823-1.0822.5976.0011,1.0812.4846,1.0823,1.0822.0004.4736-.3069.8717-.7352,1.0187l-.1115.038-.2442.0246Zm-5.112,4.6221l-.1474.0787-.1562.025c-.0662.0107-.1165.017-.1558.0168-.5431-.001-.9825-.4405-.9835-.9835.001-.5431.4405-.9826.9835-.9836.2612.0005.4968.1041.6728.2702.19.1792.3102.4315.3107.7134l-.0192.1363c-.0451.3134-.2315.5795-.5051.7267Zm30.237,4.2475l-1.0075,2.8204-.0036.0131c-.038.1369-.0868.2021-.1251.234-.0391.0308-.0792.05-.1756.0519-.045,0-.1008-.0061-.1663-.0209-.2221-.0502-.4456-.1086-.6713-.1693-.2319-.0624-.4662-.1104-.6987-.1695-.2557-.065-.5123-.1254-.7687-.1864-1.6845-.4007-3.3838-.7131-5.0987-.9308-.2458-.0312-.4901-.0711-.7365-.0984-.9223-.102-1.8483-.1817-2.7797-.2266-.7169-.0345-1.4297-.0467-2.1394-.0467h-.0148c-.7098,0-1.4226.0122-2.1394.0467-2.1307.1027-4.2343.3747-6.3178.7673-.327.0616-.6551.1169-.9809.1852-.8408.1762-1.678.3738-2.5115.5932-.0903.0238-.1817.0417-.272.066-.1276.0343-.2531.0639-.3795.0957-.0972.0244-.1953.0518-.2919.0736-.0655.0148-.1213.0209-.1663.0209-.0964-.0018-.1365-.021-.1756-.0519-.0383-.0319-.0871-.0971-.1251-.234l-.0035-.0127-2.1584-6.0422c.4067.4695.8203.952,1.2632,1.4153.2493.2608.5055.5171.7812.7575.0824.0717.1669.1296.2511.1901.4168.2995.8517.4671,1.2802.4676.4482.002.872-.1839,1.1909-.5097.321-.3256.5465-.7799.6687-1.3336.1567-.7117.2125-1.4199.2125-2.1208-.0003-.9504-.1013-1.8874-.1981-2.8113.6794,1.5566,1.5676,3.0142,2.9509,4.1774.1349.1134.2749.2264.4228.3338.2322.1686.4625.301.692.4156.218.1088.4348.1932.6505.2489.2088.054.4169.0916.6235.0919.4565.0012.8969-.1432,1.2841-.4171.3886-.2737.7282-.6697,1.0295-1.178.4923-.8313.869-1.7449,1.1494-2.6596.1871-.6109.3436-1.2261.4834-1.8434.1134-.5004.2163-1.0022.3057-1.5053.0836-.4702.1541-.9415.222-1.4129.0319-.2209.0639-.4416.0932-.6627.0589-.4449.1158-.89.1674-1.3348l.0154.0362c.052.4467.1087.8937.1681,1.3406.0304.2287.0649.457.0981.6856.0139.0952.03.1901.0444.2853.0462.3053.0899.6109.1428.9157.2038,1.1732.4603,2.3413.8138,3.4956.2803.9147.6571,1.8283,1.1494,2.6596.3013.5083.6409.9042,1.0295,1.178.0821.0581.1678.1072.2543.1535.2478.1325.5118.2138.7847.2447.0813.0092.1625.0192.2451.0189.6449-.0011,1.2998-.2726,1.966-.7564.1479-.1075.2879-.2205.4228-.3338,1.3834-1.1632,2.2715-2.6208,2.9509-4.1774-.0968.9239-.1979,1.861-.1981,2.8113,0,.7009.0557,1.4092.2125,2.1208.1222.5537.3477,1.008.6686,1.3336.3189.3258.7427.5117,1.1909.5097.5149-.0006,1.0408-.2304,1.5312-.6577.7654-.6675,1.4087-1.439,2.0444-2.1728l-.6419,1.7969-.5089,1.4246Zm1.939-4.127c-.0393.0002-.0896-.0061-.1557-.0168l-.1562-.025-.1474-.0787c-.3133-.1685-.5243-.489-.5243-.8629.0008-.4575.3143-.8381.7372-.9483.0791-.0206.1607-.0351.2463-.0352.2976.0006.5608.1355.7411.3443.1487.1722.242.3937.2424.6392-.001.5431-.4405.9825-.9835.9835Z"/><polygon class="i" points="6.526 22.4007 6.5263 22.4016 6.5261 22.4007 6.526 22.4007"/></g></g></svg>