<?xml version="1.0" encoding="UTF-8"?><svg id="b" xmlns="http://www.w3.org/2000/svg" width="93.2564" height="93.8708" xmlns:xlink="http://www.w3.org/1999/xlink" viewBox="0 0 93.2564 93.8708"><defs><style>.i{fill:url(#h);}.j{fill:url(#f);}.k{fill:url(#g);}.l{fill:url(#e);}.m{fill:url(#d);}</style><linearGradient id="d" x1="67.5343" y1="42.3588" x2="73.4502" y2="42.3588" gradientUnits="userSpaceOnUse"><stop offset="0" stop-color="#b19760"/><stop offset="1" stop-color="#ddc491"/></linearGradient><linearGradient id="e" x1="0" y1="46.9354" x2="93.2564" y2="46.9354" xlink:href="#d"/><linearGradient id="f" x1="25.965" y1="63.1413" x2="25.9698" y2="63.1413" xlink:href="#d"/><linearGradient id="g" x1="14.2116" y1="42.5544" x2="79.0448" y2="42.5544" xlink:href="#d"/><linearGradient id="h" x1="25.9645" y1="63.1343" x2="25.965" y2="63.1343" xlink:href="#d"/></defs><g id="c"><path class="m" d="m67.5498,41.8619l-.0155.152,4.941,1.5466c.2768-.3649.6009-.6903.9749-.9553l-4.6267-1.4481c-.3804.2961-.8074.5373-1.2736.7048Z"/><path class="l" d="m93.2246,54.7056l-4.5332-26.7875-14.4206-17.6767L47.4932,0l-29.6334,9.3346L0,34.7018l1.4209,28.1178,13.9965,19.8854,20.309,11.1659,26.6937-1.8296.0382-.0302.0459-.0363.0275-.0217,20.1667-15.3253,10.5582-21.732-.0318-.19Zm-1.4549-1.3829l-9.4403-7.7245,5.5782-15.0971,3.8621,22.8216Zm-10.1807-9.1963l-11.7175-28.8041,17.5326,13.0656-5.8151,15.7385Zm-22.1823,24.2051l16.957,9.3004-28.8994,10.6627,11.9424-19.9631Zm-13.4154,20.0771l-18.5887-22.4907,30.7643,2.1393-12.1757,20.3514Zm14.2014-21.0206l4.9188-4.7659c-.4617-.108-.9238-.2347-1.3852-.3348l-4.2671,4.1346-1.7027-5.1898c-.4427-.0634-.8841-.1198-1.3257-.1756l1.9046,5.8046-31.1357-2.1665-.7032-.1446-.2312-.6156-.0179.0235-.278-.8103c-.2225.058-.4447.1014-.6671.1612-.1656.0447-.3387.084-.5068.1275l.2785.8118-1.5932-.5491-2.6739-.9216-.2468-.085-.0965-.0333-15.6731-5.4017,9.5986-24.1488,2.9801,8.685c.4786.0139.9344.1089,1.3641.2629l-3.4208-9.9706,10.0919,1.2101,4.6945.563,13.3776,1.6041c.058-.3984.1192-.7972.172-1.1928l-27.7966-3.3311,22.0763-19.1964,4.8819,11.4843c.2651-.3381.5837-.6293.9312-.8865l-4.6353-10.9024,28.1408,2.6014-17.7288,19.6066c.1204.943.26,1.8993.4119,2.8572l12.4395,3.8936c-.3662-.4504-.6397-.9599-.8118-1.5143l-11.8069-3.6953,18.5537-20.5212,12.2729,30.1692.5779,1.183-.3364,1.3844-3.4989,29.3793-17.1271-9.3945Zm24.387-42.6039l-14.9498-11.141,4.1181-2.1377,10.8317,13.2787Zm-12.1418-13.9553l-3.913,2.03-15.2205-9.3479,19.1335,7.3179ZM47.5805,1.4088l18.4064,11.3049-26.5622-2.455L47.5805,1.4088Zm-2.0804.4814l-7.5949,8.2429-16.2433-.734L45.5001,1.8902Zm-26.7643,8.5818l17.8901.8076L15.3208,29.8032l3.415-19.3312Zm-1.5636,1.93l-3.2651,18.4854-11.8678,3.0069,15.1329-21.4923ZM1.287,35.3275l12.1496-3.0798-9.1723,23.0771-2.9773-19.9973Zm.5503,11.8763l1.5407,10.3505-.9036,2.2709-.6371-12.6214Zm.8556,15.3319l1.3575-3.4138,8.0897,16.8357-9.4472-13.422Zm2.4705-3.8746l19.9823,6.8863-9.2586,15.4291-10.7237-22.3154Zm20.9604,7.5994l18.3366,22.1861-27.6909-6.5973,9.3544-15.5888Zm-6.1,17.6012l23.9849,5.7148-8.0995,3.0204-15.8855-8.7352Zm19.9299,8.5122l6.1912-2.3089,9.7745,1.2153-15.9656,1.0935Zm22.0726-1.5487l-13.4233-1.6679,29.4124-10.8523.8808-.3002-16.87,12.8204Zm19.7602-15.0788l-2.5269.8626,8.499-13.1528-5.9721,12.2902Zm-3.0696-.5158l3.3669-28.2782,9.7497,7.9783-13.1166,20.2999Z"/><polygon class="j" points="25.965 63.135 25.9694 63.1477 25.9698 63.1476 25.965 63.135"/><path class="k" d="m78.4539,48.0167c.3667-.5.5908-1.1108.5909-1.7792,0-.2211-.0267-.4355-.0717-.6432-.1283-.5923-.4292-1.1185-.8482-1.5261-.5457-.5308-1.2882-.8605-2.1098-.8606-.1658,0-.3253.0232-.4838.0489-.6037.0976-1.1448.3699-1.5732.7681-.5948.5531-.9726,1.3362-.9728,2.2128.0002.8802.3819,1.6642.9788,2.2131-1.27,1.45-2.4828,2.941-3.8768,4.1529-.7216.6281-1.3909.8762-1.9311.875-.4731-.0036-.8769-.1725-1.2496-.5441-.369-.3719-.6899-.9665-.8702-1.7877-.258-1.1713-.3533-2.353-.3533-3.5489-.0006-1.9453.2541-3.9266.4537-5.9365l.0114-.0812c.0316-.288.0785-.5862.1241-.8833.2243-.0216.4398-.0705.6482-.1353,1.303-.405,2.2529-1.6044,2.2533-3.0414-.0004-1.7718-1.4359-3.2071-3.2076-3.2075-1.7717.0004-3.2072,1.4357-3.2076,3.2075.0004.7526.2824,1.4219.7177,1.9634.2459.3059.5273.5822.8675.7824-.085.2248-.1761.4446-.2642.6667-1.2425,3.1286-2.8231,5.978-5.4223,8.162-.2295.193-.459.3776-.6916.5466-1.0672.7765-2.0085,1.1238-2.8007,1.1217-.3126-.0012-.6075-.0568-.8962-.1618-.2334-.0849-.4629-.2001-.6924-.3603-.352-.2471-.7016-.6018-1.0414-1.0571-.1535-.2057-.3056-.4256-.4539-.6763-.8241-1.3908-1.4688-2.9475-1.9495-4.517-.6885-2.2458-1.1716-4.5382-1.5505-6.8564-.2717-1.6626-.4893-3.3386-.6852-5.0213-.1023-.879-.2011-1.759-.2972-2.6405,1.411-.416,2.446-1.7119,2.4468-3.2631-.0011-1.7074-1.2544-3.1076-2.8854-3.3638l.0002-.0012-.009-.0009-.0073-.0018-.0002.001c-.1622-.0284-.3298-.0469-.5027-.0505l-.0137-.0003-.0126.0003c-.1729.0035-.3404.022-.5027.0505l-.0002-.001-.0073.0018-.009.0009.0002.0012c-.6803.1069-1.287.4211-1.7725.8653-.3486.319-.6294.7063-.8212,1.1455-.1814.4154-.2913.8693-.2916,1.353.0007,1.4635.9269,2.6901,2.2162,3.1745l.2307.0886c-.0131.1202-.0267.2401-.0398.3603-.1685,1.5409-.3434,3.0785-.5465,4.6085-.0528.3985-.109.7963-.1665,1.1936-.2422,1.6742-.5285,3.3373-.8961,4.9813-.2266,1.0132-.4869,2.0186-.7827,3.0159-.0353.1191-.0648.2396-.1013.3585-.4807,1.5695-1.1254,3.1262-1.9495,4.517-.4768.8056-.9841,1.3747-1.4953,1.7335-.5135.3584-1.0233.52-1.5885.5221l-.2698-.0283c-.3854-.0349-.8014-.1473-1.2485-.3469-.4054-.181-.8299-.4173-1.2823-.7465-.2326-.1691-.4621-.3537-.6916-.5466-2.7837-2.3391-4.4043-5.4371-5.6865-8.8287.9422-.5544,1.5846-1.568,1.5852-2.7459-.0005-1.7718-1.436-3.2071-3.2076-3.2075-1.7718.0004-3.2073,1.4357-3.2077,3.2075.0004,1.6669,1.2757,3.02,2.9015,3.1766.0499.3244.1048.6527.1355.9645.1996,2.0099.4543,3.9912.4537,5.9365,0,1.1959-.0952,2.3775-.3532,3.5489-.1804.8211-.5013,1.4158-.8702,1.7877-.3728.3715-.7766.5405-1.2496.5441-.5402.0012-1.2096-.247-1.9311-.875-.4222-.3671-.8247-.765-1.2203-1.1743-.7043-.7288-1.3811-1.5054-2.0593-2.29-.1986-.2297-.3966-.4597-.5971-.6886l.2606-.2921c.3921-.4653.6429-1.0456.6933-1.6914l.0248-.2296c-.0002-.7895-.3093-1.5019-.8038-2.041-.4166-.4543-.964-.785-1.5891-.919-.2057-.0441-.4181-.0697-.6369-.0698-1.6735.0004-3.0294,1.3562-3.0298,3.0298.0005,1.6559,1.3289,2.9958,2.9781,3.0245l4.1654,11.6604.0038-.0013c.1157.3968.3076.753.6125,1.0088.3151.2675.7259.3906,1.1246.3873.1913,0,.3833-.0248.577-.0685.2235-.0505.4389-.1099.658-.1658.1999-.0511.4037-.0984.6005-.1513.1903-.0512.3825-.089.573-.139.9745-.2554,1.9523-.4887,2.9317-.7111.6024-.1368,1.2058-.2669,1.8102-.3909,4.1446-.8503,8.3328-1.4154,12.5762-1.6199,1.2651-.0609,2.5285-.0827,3.7924-.0827h.0267c1.2638,0,2.5272.0218,3.7924.0827,1.8449.0889,3.6766.2635,5.5022.4785.4431.0522.8843.1178,1.3263.1771,2.5769.3463,5.137.8038,7.6781,1.3844.4624.1057.9231.2227,1.3843.3358.6664.1634,1.3359.3065,2,.4851.4123.1109.8311.2205,1.2584.3172.1938.0437.3858.0685.5771.0686.3987.0032.8095-.1198,1.1247-.3874.3049-.2558.4968-.6121.6125-1.0088l.0037.0013,2.6655-7.4617.9166-2.5657.5833-1.633c.6042-.0105,1.1635-.2,1.6321-.5137.294-.1968.5461-.4469.755-.7317Zm-12.4878-12.4456c1.0762.0019,1.9471.8728,1.9491,1.949-.0019,1.0709-.8646,1.937-1.9336,1.9475l-.1942-.0196-.2456-.0248-.2008-.0684c-.7714-.2648-1.3248-.9818-1.324-1.8346.0019-1.0762.8728-1.9471,1.9491-1.949Zm-21.4968-9.3621c-.0005-.4588.1497-.8782.3952-1.2263.3313-.4697.8414-.8058,1.4376-.8973l.0087-.0014.0076-.0014.3098-.0313.3098.0313.0072.0013.0091.0015c1.038.1594,1.8339,1.0457,1.8329,2.1236.0008,1.1141-.8493,2.0211-1.9404,2.1337l-.2185.0223-.2185-.0223-.1273-.0251c-1.0279-.1684-1.814-1.0392-1.8131-2.1086Zm-17.1945,13.2585c-1.0689-.0104-1.9317-.8765-1.9336-1.9475.0019-1.0762.8728-1.9471,1.9491-1.949,1.0762.0019,1.9471.8728,1.9491,1.949.0008.8529-.5528,1.5698-1.324,1.8346l-.2007.0685-.4398.0443Zm-9.2063,8.324l-.2654.1418-.2813.045c-.1192.0194-.2098.0306-.2805.0303-.978-.0018-1.7695-.7933-1.7712-1.7712.0018-.9781.7933-1.7696,1.7712-1.7713.4703.0008.8947.1875,1.2117.4865.3421.3228.5587.777.5596,1.2848l-.0345.2454c-.0813.5644-.4169,1.0437-.9096,1.3087Zm54.4545,7.6495l-1.8145,5.0793-.0065.0235c-.0684.2466-.1564.364-.2253.4215-.0704.0555-.1427.0901-.3163.0934-.0811,0-.1816-.0109-.2995-.0376-.4-.0904-.8025-.1955-1.209-.305-.4176-.1123-.8397-.1988-1.2583-.3052-.4606-.1171-.9225-.2259-1.3843-.3358-3.0336-.7216-6.094-1.2842-9.1823-1.6764-.4426-.0562-.8826-.128-1.3263-.1771-1.661-.1837-3.3286-.3273-5.0061-.4081-1.2911-.0621-2.5747-.0842-3.853-.0842h-.0267c-1.2783,0-2.562.022-3.853.0842-3.8373.1849-7.6256.6747-11.3779,1.3818-.5889.1109-1.1797.2105-1.7666.3336-1.5142.3174-3.0219.6733-4.5231,1.0683-.1627.0429-.3273.0751-.4898.1188-.2298.0618-.4559.1151-.6834.1724-.175.044-.3518.0933-.5256.1326-.1179.0267-.2185.0376-.2996.0376-.1735-.0032-.2459-.0378-.3163-.0934-.0689-.0574-.1569-.1749-.2253-.4215l-.0063-.0228-3.8872-10.8815c.7325.8455,1.4773,1.7146,2.275,2.5489.4491.4696.9104.9312,1.4068,1.3642.1483.1292.3006.2334.4521.3423.7507.5395,1.5339.8412,2.3055.8421.8072.0036,1.5705-.3312,2.1447-.9179.578-.5863.9841-1.4046,1.2042-2.4017.2822-1.2817.3826-2.5571.3826-3.8195-.0005-1.7116-.1824-3.3991-.3568-5.063,1.2235,2.8034,2.8231,5.4283,5.3144,7.5232.2429.2042.4951.4077.7615.6012.4181.3037.8329.5421,1.2462.7484.3925.196.7831.3479,1.1715.4483.376.0972.7508.1649,1.1229.1655.8221.0022,1.6152-.2579,2.3126-.7512.6998-.493,1.3114-1.2061,1.8541-2.1214.8865-1.4971,1.565-3.1424,2.0699-4.7897.3369-1.1002.6187-2.2081.8706-3.3197.2042-.9012.3896-1.8048.5506-2.7109.1506-.8467.2775-1.6955.3999-2.5446.0574-.3979.1151-.7953.1678-1.1935.106-.8013.2086-1.6029.3015-2.4038l.0277.0652c.0936.8045.1957,1.6096.3027,2.4143.0548.412.1168.8231.1767,1.2348.025.1714.0541.3424.08.5137.0833.5499.1618,1.1001.2572,1.6491.367,2.1129.8291,4.2165,1.4656,6.2953.5048,1.6473,1.1833,3.2926,2.0699,4.7897.5426.9154,1.1542,1.6285,1.8541,2.1214.1479.1046.3022.193.458.2764.4462.2387.9218.3851,1.4131.4408.1464.0166.2927.0345.4414.0341,1.1614-.002,2.3409-.4909,3.5406-1.3622.2663-.1936.5185-.397.7614-.6012,2.4914-2.0949,4.0909-4.7198,5.3144-7.5232-.1744,1.6639-.3563,3.3515-.3568,5.063,0,1.2624.1004,2.5378.3827,3.8195.22.9971.6261,1.8154,1.2041,2.4017.5743.5868,1.3375.9215,2.1448.9179.9273-.0012,1.8744-.4149,2.7576-1.1845,1.3784-1.2021,2.5369-2.5916,3.6818-3.913l-1.156,3.236-.9165,2.5656Zm3.4919-7.4323c-.0707.0003-.1613-.011-.2804-.0303l-.2813-.045-.2654-.1418c-.5643-.3034-.9443-.8806-.9442-1.5541.0015-.8239.566-1.5094,1.3277-1.7079.1425-.0372.2894-.0631.4436-.0634.5359.001,1.01.2441,1.3347.6201.2678.3102.4358.7091.4365,1.1512-.0018.978-.7933,1.7695-1.7712,1.7712Z"/><polygon class="i" points="25.9645 63.1335 25.965 63.135 25.9646 63.1335 25.9645 63.1335"/></g></svg>