<?xml version="1.0" encoding="UTF-8"?><svg id="b" xmlns="http://www.w3.org/2000/svg" width="21.5726" height="15.5053" viewBox="0 0 21.5726 15.5053"><defs><style>.e{fill:#bebfbe;}</style></defs><g id="c"><g id="d"><path class="e" d="m18.876,0H2.6966C1.2097,0,0,1.2097,0,2.6966v10.1122c0,1.4869,1.2097,2.6966,2.6966,2.6966h16.1795c1.4869,0,2.6966-1.2097,2.6966-2.6966V2.6966c0-1.4869-1.2097-2.6966-2.6966-2.6966Zm1.3483,12.8087c0,.7436-.6047,1.3483-1.3483,1.3483H2.6966c-.7436,0-1.3483-.6047-1.3483-1.3483V2.6966c0-.7436.6047-1.3483,1.3483-1.3483h16.1795c.7436,0,1.3483.6047,1.3483,1.3483v10.1122Z"/><path class="e" d="m17.775,3.5231l-6.9886,5.718L3.7977,3.5231c-.2887-.2353-.7126-.1935-.9487.0948-.2357.2883-.1932.713.0948.9487l7.4156,6.0673c.1241.1017.2755.1524.4269.1524s.3028-.0507.4269-.1524l7.4156-6.0673c.288-.2357.3305-.6603.0948-.9487-.2357-.2883-.6603-.3301-.9487-.0948Z"/></g></g></svg>