<?xml version="1.0" encoding="UTF-8"?><svg id="b" xmlns="http://www.w3.org/2000/svg" width="464.2206" height="57.6169" xmlns:xlink="http://www.w3.org/1999/xlink" viewBox="0 0 464.2206 57.6169"><defs><style>.e{fill:url(#d);}</style><linearGradient id="d" x1="0" y1="28.8085" x2="619.6284" y2="28.8085" gradientUnits="userSpaceOnUse"><stop offset="0" stop-color="#b19760"/><stop offset="1" stop-color="#ddc491"/></linearGradient></defs><g id="c"><path class="e" d="m165.2096,50.3349l-8.2572-14.3344c-1.9268.3003-3.9379.3442-5.9918.3442h-29.2335v13.9903h-3.4115V7.1685h32.645c4.0661,0,7.9613.1991,11.374,2.19,4.4362,2.6163,6.796,7.5069,6.796,12.3987,0,4.9187-2.3598,9.8386-6.796,12.4257-.6366.3723-1.2901.6794-1.9594.9358l8.7723,15.2163h-3.9379Zm-14.2501-17.4029c3.1854,0,6.8534-.0562,9.7261-1.7344,3.2417-1.9054,5.0324-5.687,5.0324-9.4404s-1.7907-7.508-5.0897-9.4416c-2.7299-1.5927-6.1144-1.7344-9.6688-1.7344h-29.2324v22.3509h29.2324Zm88.155-4.1381c0,17.5176-16.3793,23.1191-30.2009,23.1191-13.763,0-30.1694-5.6015-30.1694-23.1191,0-17.4884,16.4063-23.0899,30.1694-23.0899,13.8215,0,30.2009,5.6015,30.2009,23.0899Zm-3.4126-.0281c0-14.9857-14.3322-19.6491-26.8152-19.6491-12.6832,0-26.732,4.8051-26.732,19.6491,0,15.0431,14.3907,19.7346,26.8445,19.7346,12.7687,0,26.7027-4.948,26.7027-19.7346Zm59.927-21.5973l-24.0775,28.3281v14.8384h-3.4104v-14.8384l-24.0775-28.3281h4.479l21.3037,25.0661,21.3037-25.0661h4.479Zm47.3136,30.7115h-31.4449l-7.174,12.4549h-3.939l24.8671-43.1664h3.9368l24.8671,43.1664h-3.9368l-7.1762-12.4549Zm-1.9661-3.4126l-13.7563-23.8806-13.7563,23.8806h27.5126Zm67.9919,12.5404v3.4126h-43.1675v-.0281h-.1125V7.2539h3.4126v39.7538h39.8674Zm55.2524-39.8393v3.4126h-43.0731v16.4648h40.2273v3.4115h-40.2273v16.4648h43.0731v3.4126h-46.4857V7.1685h46.4857ZM57.1083,21.7925h0s5.8197-5.8196,5.8197-5.8196h-4.4204c-.1071-.0189-.2161-.0328-.3287-.0328h-24.364l-3.9613,3.9614h23.5434l-16.8772,16.8772c-3.8677,3.8676-8.75,3.9109-8.75,3.9109h-5.4444c-5.083-.001-9.6609-2.0506-12.9888-5.3753-3.3247-3.328-5.3742-7.9058-5.3753-12.9889,0-.0002,0-.0004,0-.0006.0013-5.0829,2.0507-9.6604,5.3753-12.9882,3.3279-3.3247,7.9058-5.3742,12.9888-5.3753h43.3707l3.9614-3.9614H22.3255C9.9871,0,0,9.9871,0,22.3255c0,.0006.0002.001.0002.0016.0008,12.3376,9.9876,22.3238,22.3253,22.3239h5.5534s6.3879-.0169,11.0033-4.6323l18.2261-18.2262Zm25.1902-5.8525h-9.9444l-3.9614,3.9614h13.9058c2.8804.0011,5.4657,1.1594,7.3518,3.0423,1.8828,1.8861,3.0412,4.4715,3.0423,7.3518-.001,2.8804-1.1594,5.4657-3.0423,7.3518-1.8861,1.8828-4.4715,3.0412-7.3518,3.0423h-36.0515c-.2558,0-.4984.0525-.7229.1407-.0099.0039-.02.0052-.0298.0093-.244.1004-.4643.2465-.6479.4301l-1.7205,1.7205-14.6268,14.6268h5.6023l12.966-12.966h35.2311c7.933,0,14.3553-6.4223,14.3554-14.3554,0-7.9331-6.4224-14.3554-14.3554-14.3555Z"/></g></svg>