<?xml version="1.0" encoding="UTF-8"?><svg id="b" xmlns="http://www.w3.org/2000/svg" width="210.9334" height="128.487" xmlns:xlink="http://www.w3.org/1999/xlink" viewBox="0 0 210.9334 128.487"><defs><style>.j{fill:url(#h);}.k{fill:url(#i);}.l{fill:url(#f);}.m{fill:url(#g);}.n{fill:url(#e);}.o{fill:url(#d);}</style><linearGradient id="d" x1="122.8543" y1="35.2299" x2="127.7745" y2="35.2299" gradientUnits="userSpaceOnUse"><stop offset="0" stop-color="#b19760"/><stop offset="1" stop-color="#ddc491"/></linearGradient><linearGradient id="e" x1="66.6859" y1="39.0362" x2="144.2474" y2="39.0362" xlink:href="#d"/><linearGradient id="f" x1="88.2811" y1="52.5147" x2="88.285" y2="52.5147" xlink:href="#d"/><linearGradient id="g" x1="78.5058" y1="35.3926" x2="132.4276" y2="35.3926" xlink:href="#d"/><linearGradient id="h" x1="88.2806" y1="52.5088" x2="88.2811" y2="52.5088" xlink:href="#d"/><linearGradient id="i" x1="0" y1="115.397" x2="281.5478" y2="115.397" xlink:href="#d"/></defs><g id="c"><path class="o" d="m122.8672,34.8166l-.0129.1264,4.1094,1.2863c.2302-.3035.4998-.5741.8108-.7946l-3.848-1.2044c-.3164.2463-.6715.4469-1.0593.5862Z"/><path class="n" d="m144.221,45.4987l-3.7703-22.2792-11.9936-14.7018L106.1861,0l-24.6461,7.7636-14.854,21.098,1.1818,23.3856,11.6409,16.5387,16.891,9.2867,22.2012-1.5217.0318-.0251.0381-.0302.0229-.0181,16.7726-12.7461,8.7813-18.0746-.0264-.1581Zm-1.21-1.1501l-7.8515-6.4244,4.6394-12.5563,3.2121,18.9807Zm-8.4673-7.6486l-9.7455-23.9564,14.5819,10.8667-4.8364,13.0897Zm-18.4491,20.1314l14.1032,7.7352-24.0356,8.8681,9.9325-16.6033Zm-11.1576,16.6981l-15.4602-18.7056,25.5867,1.7793-10.1265,16.9263Zm11.8113-17.4829l4.0909-3.9638c-.384-.0898-.7683-.1952-1.1521-.2784l-3.5489,3.4388-1.4161-4.3164c-.3682-.0527-.7353-.0996-1.1026-.146l1.5841,4.8277-25.8956-1.8018-.5849-.1203-.1923-.512-.0149.0195-.2312-.6739c-.185.0482-.3698.0843-.5549.1341-.1377.0372-.2817.0699-.4215.1061l.2317.6751-1.3251-.4567-2.2239-.7665-.2053-.0707-.0802-.0277-13.0353-4.4926,7.9831-20.0846,2.4785,7.2233c.3981.0116.7772.0906,1.1346.2187l-2.8451-8.2925,8.3935,1.0065,3.9044.4682,11.1262,1.3341c.0482-.3314.0992-.6631.143-.9921l-23.1185-2.7705,18.3609-15.9656,4.0603,9.5515c.2205-.2812.4855-.5234.7745-.7373l-3.8552-9.0675,23.4047,2.1636-14.7451,16.3068c.1002.7843.2163,1.5796.3426,2.3764l10.346,3.2383c-.3046-.3746-.532-.7984-.6751-1.2594l-9.8198-3.0734,15.4311-17.0675,10.2074,25.0917.4807.9839-.2798,1.1514-2.9101,24.4348-14.2447-7.8134Zm20.2827-35.4337l-12.4338-9.266,3.4251-1.7779,9.0087,11.0439Zm-10.0983-11.6066l-3.2545,1.6884-12.6589-7.7747,15.9134,6.0863Zm-20.674-7.8347l15.3086,9.4023-22.0919-2.0419,6.7832-7.3604Zm-1.7303.4004l-6.3167,6.8556-13.5095-.6105,19.8262-6.2451Zm-22.2599,7.1375l14.8792.6717-17.7195,15.4061,2.8402-16.0777Zm-1.3005,1.6052l-2.7156,15.3743-9.8705,2.5009,12.5861-17.8752Zm-13.2117,19.0671l10.1049-2.5614-7.6286,19.1932-2.4762-16.6318Zm.4577,9.8775l1.2814,8.6085-.7515,1.8887-.5299-10.4972Zm.7116,12.7516l1.129-2.8392,6.7282,14.0023-7.8572-11.1631Zm2.0547-3.2225l16.6193,5.7273-7.7004,12.8324-8.9189-18.5597Zm17.4328,6.3204l15.2506,18.4522-23.0306-5.487,7.78-12.9652Zm-5.0734,14.6389l19.9483,4.753-6.7363,2.5121-13.2119-7.2651Zm16.5757,7.0796l5.1492-1.9203,8.1294,1.0108-13.2786.9095Zm18.3578-1.2881l-11.1641-1.3872,24.4623-9.0259.7326-.2497-14.0308,10.6627Zm16.4346-12.541l-2.1017.7174,7.0687-10.9392-4.967,10.2218Zm-2.5529-.429l2.8003-23.519,8.1089,6.6355-10.9091,16.8835Z"/><polygon class="l" points="88.2811 52.5095 88.2847 52.52 88.285 52.5199 88.2811 52.5095"/><path class="m" d="m131.9361,39.9355c.305-.4158.4913-.9239.4915-1.4798,0-.1839-.0222-.3622-.0597-.5349-.1067-.4926-.357-.9302-.7054-1.2692-.4538-.4415-1.0714-.7157-1.7548-.7158-.1379,0-.2706.0193-.4024.0406-.5021.0811-.9522.3076-1.3084.6389-.4947.46-.8089,1.1113-.8091,1.8404.0001.7321.3176,1.3841.8141,1.8406-1.0562,1.206-2.065,2.446-3.2243,3.454-.6001.5224-1.1568.7287-1.6061.7277-.3935-.003-.7293-.1435-1.0393-.4525-.3069-.3093-.5738-.8039-.7238-1.4868-.2146-.9742-.2938-1.957-.2938-2.9516-.0005-1.6179.2113-3.2658.3773-4.9374l.0095-.0675c.0263-.2395.0653-.4875.1032-.7346.1865-.018.3657-.0586.5391-.1126,1.0837-.3369,1.8738-1.3344,1.874-2.5295-.0003-1.4736-1.1942-2.6674-2.6678-2.6677-1.4735.0003-2.6674,1.1941-2.6678,2.6677.0003.626.2349,1.1826.5969,1.633.2045.2545.4386.4843.7215.6507-.0707.187-.1464.3698-.2198.5545-1.0334,2.6021-2.3479,4.9719-4.5097,6.7883-.1909.1605-.3818.3141-.5752.4546-.8876.6458-1.6705.9347-2.3293.9329-.26-.001-.5053-.0472-.7454-.1345-.1941-.0706-.385-.1664-.5759-.2997-.2928-.2055-.5835-.5005-.8661-.8792-.1276-.1711-.2541-.354-.3775-.5625-.6854-1.1567-1.2216-2.4514-1.6214-3.7568-.5726-1.8678-.9745-3.7745-1.2895-5.7025-.226-1.3827-.407-2.7767-.5699-4.1762-.0851-.731-.1673-1.463-.2472-2.1961,1.1735-.346,2.0343-1.4238,2.035-2.7139-.0009-1.4201-1.0433-2.5846-2.3998-2.7977l.0002-.001-.0075-.0008-.0061-.0015v.0008c-.1351-.0236-.2744-.039-.4182-.042l-.0114-.0003-.0105.0003c-.1438.0029-.2831.0183-.4181.042v-.0008s-.0062.0015-.0062.0015l-.0075.0008.0002.001c-.5658.0889-1.0704.3502-1.4742.7197-.2899.2653-.5235.5874-.683.9527-.1509.3455-.2423.723-.2425,1.1253.0006,1.2172.7709,2.2374,1.8432,2.6402l.1918.0737c-.0109.1-.0222.1997-.0331.2997-.1401,1.2816-.2856,2.5604-.4545,3.8329-.044.3314-.0907.6623-.1385.9927-.2014,1.3925-.4395,2.7757-.7453,4.1429-.1885.8427-.405,1.6789-.6509,2.5084-.0294.0991-.0539.1993-.0843.2982-.3998,1.3054-.936,2.6001-1.6214,3.7568-.3965.67-.8185,1.1433-1.2437,1.4417-.4271.2981-.8511.4324-1.3212.4342l-.2244-.0235c-.3205-.029-.6665-.1225-1.0384-.2885-.3372-.1505-.6902-.347-1.0665-.6208-.1934-.1406-.3843-.2942-.5752-.4546-2.3152-1.9454-3.663-4.522-4.7295-7.3429.7836-.4611,1.3179-1.3041,1.3184-2.2837-.0004-1.4736-1.1943-2.6674-2.6678-2.6677-1.4736.0003-2.6675,1.1941-2.6678,2.6677.0003,1.3863,1.061,2.5117,2.4132,2.642.0415.2698.0871.5428.1127.8022.166,1.6716.3778,3.3195.3773,4.9374,0,.9946-.0792,1.9774-.2937,2.9516-.15.6829-.4169,1.1775-.7238,1.4868-.31.309-.6459.4495-1.0393.4525-.4493.001-1.006-.2054-1.6061-.7277-.3512-.3053-.6859-.6362-1.015-.9767-.5858-.6062-1.1487-1.252-1.7127-1.9046-.1652-.1911-.3298-.3823-.4966-.5727l.2168-.243c.3261-.387.5347-.8696.5766-1.4067l.0206-.191c-.0001-.6566-.2572-1.2492-.6685-1.6975-.3465-.3778-.8018-.6529-1.3217-.7643-.1711-.0367-.3477-.058-.5297-.0581-1.3919.0003-2.5195,1.128-2.5199,2.5199.0004,1.3772,1.1052,2.4916,2.4769,2.5155l3.4643,9.698.0031-.0011c.0962.33.2558.6263.5094.839.2621.2225.6037.3249.9354.3221.1591,0,.3188-.0206.4799-.057.1858-.042.365-.0914.5472-.1379.1663-.0425.3358-.0818.4995-.1259.1582-.0425.3182-.074.4765-.1156.8105-.2124,1.6237-.4064,2.4383-.5914.5011-.1138,1.0029-.222,1.5055-.3251,3.4471-.7072,6.9304-1.1772,10.4596-1.3473,1.0522-.0507,2.1029-.0688,3.1541-.0688h.0222c1.0511,0,2.1019.0181,3.1541.0688,1.5344.0739,3.0578.2191,4.5762.3979.3686.0434.7355.0979,1.1031.1473,2.1432.288,4.2724.6685,6.3859,1.1514.3846.0879.7677.1852,1.1514.2792.5543.1359,1.1111.2549,1.6634.4034.3429.0923.6912.1834,1.0466.2638.1612.0364.3209.057.48.0571.3316.0027.6733-.0996.9354-.3222.2536-.2127.4132-.509.5094-.839l.0031.0011,2.2169-6.2059.7624-2.1339.4852-1.3582c.5025-.0088.9677-.1664,1.3574-.4272.2446-.1637.4542-.3717.6279-.6085Zm-10.3861-10.351c.8951.0016,1.6194.7259,1.621,1.621-.0016.8907-.7191,1.611-1.6081,1.6197l-.1615-.0163-.2042-.0206-.167-.0569c-.6415-.2202-1.1018-.8165-1.1012-1.5259.0016-.8951.7259-1.6194,1.621-1.621Zm-17.8789-7.7864c-.0004-.3816.1245-.7304.3287-1.0199.2755-.3907.6998-.6702,1.1956-.7463l.0072-.0011.0063-.0011.2577-.0261.2577.0261.006.0011.0075.0012c.8633.1326,1.5253.8697,1.5244,1.7662.0007.9266-.7063,1.681-1.6138,1.7746l-.1818.0185-.1817-.0185-.1059-.0209c-.8549-.14-1.5087-.8643-1.508-1.7537Zm-14.3007,11.0271c-.889-.0087-1.6066-.729-1.6082-1.6197.0016-.8951.7259-1.6194,1.6211-1.621.895.0016,1.6194.7259,1.621,1.621.0006.7093-.4597,1.3056-1.1012,1.5259l-.1669.057-.3658.0369Zm-7.6569,6.9231l-.2207.1179-.234.0374c-.0992.0161-.1745.0255-.2333.0252-.8134-.0015-1.4717-.6598-1.4731-1.4731.0015-.8135.6598-1.4717,1.4731-1.4732.3912.0007.7441.1559,1.0078.4047.2845.2684.4646.6463.4654,1.0686l-.0287.2041c-.0676.4694-.3467.868-.7565,1.0884Zm45.2899,6.3621l-1.5091,4.2245-.0054.0195c-.0569.2051-.1301.3028-.1874.3505-.0586.0462-.1187.0749-.2631.0777-.0675,0-.151-.0091-.2491-.0313-.3327-.0752-.6674-.1626-1.0056-.2536-.3473-.0934-.6983-.1653-1.0465-.2538-.3831-.0974-.7673-.1879-1.1514-.2792-2.5231-.6001-5.0684-1.0681-7.6369-1.3942-.3681-.0468-.7341-.1065-1.1031-.1473-1.3815-.1528-2.7684-.2722-4.1636-.3394-1.0738-.0517-2.1414-.07-3.2045-.07h-.0222c-1.0632,0-2.1308.0183-3.2045.07-3.1915.1538-6.3422.5612-9.463,1.1492-.4898.0923-.9812.1751-1.4693.2775-1.2594.264-2.5133.56-3.7619.8885-.1353.0356-.2722.0625-.4074.0988-.1911.0514-.3792.0958-.5684.1434-.1455.0366-.2926.0776-.4372.1103-.0981.0222-.1817.0313-.2492.0312-.1443-.0027-.2045-.0314-.2631-.0777-.0573-.0477-.1305-.1455-.1874-.3505l-.0052-.019-3.233-9.0502c.6092.7032,1.2287,1.426,1.8921,2.1199.3735.3906.7572.7745,1.1701,1.1346.1234.1075.25.1941.376.2847.6244.4487,1.2757.6996,1.9175.7004.6714.003,1.3061-.2755,1.7838-.7634.4807-.4876.8185-1.1682,1.0015-1.9975.2347-1.066.3182-2.1268.3182-3.1767-.0004-1.4235-.1517-2.827-.2968-4.2109,1.0176,2.3316,2.3479,4.5148,4.42,6.2571.202.1698.4117.339.6333.5.3477.2526.6927.4508,1.0365.6224.3265.163.6513.2893.9743.3728.3127.0809.6244.1372.9339.1377.6837.0018,1.3433-.2145,1.9234-.6248.582-.41,1.0907-1.0031,1.542-1.7644.7373-1.2451,1.3016-2.6135,1.7215-3.9836.2802-.915.5146-1.8365.7241-2.761.1699-.7495.324-1.5011.4579-2.2547.1252-.7042.2308-1.4102.3326-2.1164.0477-.3309.0958-.6615.1396-.9926.0882-.6665.1735-1.3331.2508-1.9992l.023.0542c.0778.6691.1628,1.3387.2518,2.008.0456.3426.0972.6845.1469,1.027.0208.1425.045.2848.0666.4273.0693.4574.1346.915.2139,1.3716.3052,1.7573.6895,3.5069,1.2189,5.2358.4199,1.3701.9842,2.7385,1.7215,3.9836.4513.7613.96,1.3544,1.542,1.7644.123.087.2513.1605.381.2299.3711.1985.7666.3203,1.1753.3666.1218.0138.2435.0287.3672.0284.966-.0017,1.9469-.4083,2.9448-1.133.2215-.1611.4312-.3302.6332-.5,2.0721-1.7423,3.4024-3.9255,4.42-6.2571-.145,1.3839-.2964,2.7874-.2968,4.2109,0,1.0499.0835,2.1107.3183,3.1767.183.8293.5207,1.5099,1.0015,1.9975.4777.488,1.1124.7664,1.7838.7634.7712-.001,1.5589-.345,2.2935-.9851,1.1464-.9998,2.11-2.1555,3.0621-3.2545l-.9614,2.6914-.7622,2.1338Zm2.9043-6.1815c-.0588.0003-.1342-.0091-.2332-.0252l-.234-.0374-.2207-.1179c-.4693-.2523-.7854-.7324-.7853-1.2925.0012-.6852.4707-1.2554,1.1043-1.4204.1185-.0309.2407-.0525.3689-.0528.4457.0008.84.203,1.1101.5158.2227.258.3624.5897.3631.9575-.0015.8134-.6598,1.4717-1.4731,1.4731Z"/><polygon class="j" points="88.2806 52.5082 88.2811 52.5095 88.2807 52.5082 88.2806 52.5082"/><path class="k" d="m75.0682,125.1782l-3.7519-6.5133c-.8755.1365-1.7893.1564-2.7226.1564h-13.2832v6.3569h-1.5501v-19.614h14.8333c1.8476,0,3.6175.0905,5.1681.9951,2.0157,1.1888,3.088,3.411,3.088,5.6337,0,2.235-1.0723,4.4705-3.088,5.646-.2893.1692-.5862.3087-.8903.4252l3.986,6.914h-1.7893Zm-6.475-7.9076c1.4474,0,3.1141-.0256,4.4194-.7881,1.473-.8658,2.2866-2.5841,2.2866-4.2896s-.8137-3.4115-2.3127-4.2901c-1.2404-.7237-2.7783-.7881-4.3933-.7881h-13.2827v10.1558h13.2827Zm40.056-1.8803c0,7.9597-7.4425,10.5049-13.7227,10.5049-6.2537,0-13.7084-2.5452-13.7084-10.5049,0-7.9464,7.4547-10.4916,13.7084-10.4916,6.2803,0,13.7227,2.5452,13.7227,10.4916Zm-1.5506-.0128c0-6.8092-6.5123-8.9282-12.1843-8.9282-5.763,0-12.1465,2.1834-12.1465,8.9282,0,6.8353,6.5389,8.967,12.1976,8.967,5.8019,0,12.1332-2.2483,12.1332-8.967Zm27.2298-9.8134l-10.9404,12.8718v6.7423h-1.5496v-6.7423l-10.9404-12.8718h2.0352l9.68,11.3896,9.68-11.3896h2.0352Zm21.4984,13.9548h-14.288l-3.2597,5.6593h-1.7898l11.2991-19.614h1.7888l11.2991,19.614h-1.7888l-3.2607-5.6593Zm-.8934-1.5506l-6.2506-10.8509-6.2506,10.8509h12.5012Zm30.8943,5.6981v1.5506h-19.6145v-.0128h-.0511v-19.6013h1.5506v18.0634h18.115Zm25.1057-18.1022v1.5506h-19.5716v7.4813h18.2786v1.5501h-18.2786v7.4813h19.5716v1.5506h-21.1223v-19.614h21.1223Zm-184.9844,6.6449h0s2.6444-2.6443,2.6444-2.6443h-2.0085c-.0487-.0086-.0982-.0149-.1494-.0149h-11.0705l-1.7999,1.8h10.6977l-7.6687,7.6687c-1.7574,1.7574-3.9758,1.7771-3.9758,1.7771h-2.4738c-2.3096-.0005-4.3897-.9317-5.9019-2.4424-1.5107-1.5122-2.4419-3.5923-2.4424-5.9019,0,0,0-.0002,0-.0003.0006-2.3096.9318-4.3895,2.4425-5.9016,1.5121-1.5107,3.5922-2.4419,5.9019-2.4425h19.7069l1.8-1.8H10.1443c-5.6063,0-10.1443,4.538-10.1443,10.1443,0,.0003,0,.0005,0,.0007.0004,5.606,4.5382,10.1435,10.1442,10.1436h2.5233s2.9026-.0077,4.9997-2.1048l8.2816-8.2817Zm11.446-2.6592h-4.5186l-1.8,1.8h6.3185c1.3088.0005,2.4835.5268,3.3405,1.3824.8555.857,1.3819,2.0318,1.3824,3.3405-.0005,1.3088-.5268,2.4835-1.3824,3.3405-.857.8555-2.0318,1.3819-3.3405,1.3824h-16.3812c-.1162,0-.2265.0238-.3285.0639-.0045.0018-.0091.0024-.0135.0042-.1109.0456-.211.112-.2944.1954l-.7817.7817-6.6461,6.6461h2.5456l5.8915-5.8915h16.0084c3.6046,0,6.5228-2.9182,6.5228-6.5228,0-3.6046-2.9182-6.5228-6.5228-6.5229Z"/></g></svg>