<?xml version="1.0" encoding="UTF-8"?><svg id="b" xmlns="http://www.w3.org/2000/svg" width="20.2243" height="20.2243" viewBox="0 0 20.2243 20.2243"><defs><style>.e{fill:#bebfbe;}</style></defs><g id="c"><g id="d"><path class="e" d="m17.009,12.6518c-.3655-.3607-.7762-.5411-1.1865-.5411s-.82.1804-1.1831.5411c-.5539.5494-1.1079,1.0986-1.6526,1.6573-.0913.0941-.1739.1428-.2659.1428-.0582,0-.1201-.0194-.1904-.0591-.3585-.1954-.7403-.3537-1.0848-.5678-1.6063-1.0102-2.9518-2.3091-4.1434-3.771-.5913-.7262-1.1175-1.5036-1.4853-2.3788-.0744-.1768-.0605-.2933.0838-.4376.5541-.5355,1.0941-1.0848,1.6388-1.6342.7588-.7635.7588-1.6573-.0046-2.4255-.4331-.4375-.8661-.8658-1.2989-1.3034-.447-.4469-.8893-.8986-1.341-1.3409C4.5304.178,4.1203,0,3.7108,0c-.411,0-.8214.1792-1.1852.5383-.5587.5494-1.0941,1.1127-1.6619,1.6525C.3374,2.6892.0721,3.2991.0162,4.0112c-.0884,1.1594.1955,2.2532.5961,3.3193.8192,2.2068,2.067,4.1667,3.58,5.9636,2.0439,2.4303,4.4832,4.3529,7.337,5.7403,1.2851.6238,2.6164,1.1034,4.0643,1.1824.0878.0049.1747.0075.2606.0075.8872,0,1.6628-.2715,2.2954-.9804.4749-.5308,1.0101-1.0149,1.513-1.5224.7449-.7542.7495-1.6666.0093-2.4115-.8845-.8893-1.7737-1.7738-2.6631-2.6582Zm1.6961,4.1206c-.166.1675-.3357.3324-.5055.4972-.3495.3396-.7109.6908-1.056,1.0765-.3314.3714-.717.5298-1.2894.5298-.0609,0-.1226-.0018-.1871-.0055-1.0813-.0591-2.1759-.3826-3.5483-1.0488-2.6457-1.2862-4.9654-3.1015-6.8951-5.3961-1.5426-1.832-2.6375-3.6521-3.3493-5.5694-.4156-1.1063-.5741-1.9521-.5141-2.7395.0316-.403.1644-.695.4323-.9488.3507-.3334.6894-.6752,1.0285-1.0176.2153-.2175.4307-.4352.6517-.6525.1196-.1181.2059-.1496.238-.1496.033,0,.1213.0318.2411.1486.2969.2907.5896.5856.8824.8803l.4434.4455c.2204.2228.4409.4432.6613.6638.2126.2125.4252.425.6398.6419.2484.2498.2338.294.0034.5258l-.2275.2296c-.4612.4658-.9209.9301-1.4075,1.4007-.5267.5269-.6627,1.2242-.3733,1.9132.3799.9038.9145,1.7641,1.6833,2.7083,1.4054,1.7242,2.8677,3.0524,4.4765,4.0641.2651.1648.5328.2964.7691.4125.1284.0631.257.1258.3642.1841.2744.1551.5616.2337.8537.2337.3183,0,.7906-.0957,1.2314-.5499.5324-.5462,1.0739-1.0831,1.6374-1.642.1189-.1181.2043-.1493.2328-.1493.0294,0,.1172.0318.2357.1488.8875.8827,1.7751,1.7656,2.6574,2.6526.2045.2058.226.2727-.0105.5121Z"/></g></g></svg>