<?xml version="1.0" encoding="UTF-8"?><svg id="b" xmlns="http://www.w3.org/2000/svg" width="114.0116" height="117.2363" viewBox="0 0 114.0116 117.2363"><defs><style>.e{fill:#fff;opacity:.31;}</style></defs><g id="c"><path id="d" class="e" d="m95.4483,15.6776l-.0811-.0365L60.6348,0,24.6088,8.1826,1.2059,37.0977l-1.2059,36.0821,8.8309,21.6796,25.4984,20.8504,33.2244,1.5265,30.0034-15.909,14.1231-18.4041,2.3314-35.2528-18.5633-31.9928Zm-41.5909,55.0787l-32.0687-5.1256,23.7412-29.1152,8.3275,34.2408Zm-7.7895-34.3662l36.3062,16.1538-27.9743,18.1077-8.3319-34.2615Zm7.7423,34.9183l-14.0649,28.4423-17.967-33.5628,32.0319,5.1205Zm.5093.2153l24.6338,19.5885-38.6936,8.8427,14.0598-28.4312Zm.3766-.4061l27.9315-18.0797-3.2837,37.68-24.6478-19.6003Zm-8.458-35.2551l29.102-19.3221,7.2344,35.4876-36.3364-16.1656Zm-.3486-.4312l-3.0021-26.2579,31.947,7.0402-28.945,19.2178Zm-2.4722-26.7068L60.5427.6247l14.1688,14.9962-31.294-6.8964Zm-1.0952.3667l3.0286,26.4839-30.2459-5.2923,9.8348-21.572,17.3825.3803Zm2.8333,27.0101l-23.7214,29.0902-6.3845-34.3573,30.1059,5.2671Zm-5.9143,63.8772l-29.7926-5.4971,11.8529-28.014,17.9396,33.5111Zm39.8419-8.3297l-11.7121,24.9147-26.8856-16.094,38.5977-8.8206Zm.8189-.9795l3.2814-37.6447,23.3808,17.9803-26.6622,19.6644Zm26.5973-18.931l-9.2857,28.9685-17.1296-9.4861,26.4153-19.4824Zm-30.5436-54.942l27.3337,22.647-20.1465,12.6099-7.1872-35.2569Zm.3302-.4437l18.7748-.1817,8.096,22.4454-26.8708-22.2638Zm27.7074,22.9566l-7.44-20.6271,16.1626,27.8549-8.7226-7.2278Zm-28.3464-23.5023L61.7647,1.1141l32.2308,14.5149-18.3487.1777Zm-33.1367-7.2639l-15.5-.339L58.2121,1.1167l-15.7019,7.426ZM14.4938,30.2916l-11.9885,6.0779L23.61,10.2951l-9.1162,19.9965Zm6.4251,35.1467L1.1086,59.7297l13.4811-28.3501,6.3292,34.0588Zm-.0228.5683l-11.763,27.8032L1.0983,60.3016l19.7979,5.705Zm18.491,34.5593l-5.0836,14.4098-24.2365-19.8192,29.3201,5.4094Zm.516.1975l26.5067,15.8677-31.5925-1.452,5.0858-14.4157Zm39.7947-9.125l17.0965,9.4677-28.701,15.2192,11.6045-24.6869Zm27.344-19.7846l4.0569,10.9205-12.9762,16.9086,8.9194-27.829Zm-.1725-1.3106l-23.4346-18.0215,20.3027-12.7072,9.6778,8.0194-6.5459,22.7092ZM1.7491,37.3712l12.36-6.2658L1.04,58.5879l.7091-21.2168Zm-.8219,24.5852l7.0162,29.2611L.5557,73.081l.3715-11.1246Zm110.2931,19.5605l-3.9072-10.518,5.9732-20.7237-2.066,31.2417Z"/></g></svg>