<?xml version="1.0" encoding="UTF-8"?><svg id="b" xmlns="http://www.w3.org/2000/svg" width="545.7582" height="35.4278" viewBox="0 0 545.7582 35.4278"><defs><style>.d{fill:#bf2222;}</style></defs><g id="c"><path class="d" d="m289.7638,14.7826l.0193-.2911-.147-.253.101-1.5296-.3281,1.1383-4.9014-8.4467.3892-.0038-.5299-.2387-.1396-.2404-.083-.0377-.0239-.0107-9.6755-4.3574L275.5258.0005l-1.4733.3345-.2463-.1109-.263.0597-.6302-.2838.3321.3515-9.5925,2.1787.4094-.898-.7983.9864-.2556.0581-.1648.2036-1.2846.2917,1.0301.0226-6.594,8.1472-.0089.2696-.3863.4771.3766-.1909-.342,10.2251,2.4358,5.9796-.2245-.0414.3112.2545.1279.314.1846.1509.066.2752.0695-.1644,7.3178,5.9836,9.4831.4359-.0552.1173.208-.1103.3192.0147.2825-.1497.4333.0199-.2213-.1324,7.8043-4.1382-.1334.4163.4471-.5826.346-.1834,3.8952-5.0763.1364.3674.0395-.5966.1774-.2314.6569-9.9278.4168.3453-.3946-.6802Zm-1.6996-1.7944l-1.2796-1.0604-1.0917-3.0262,2.3713,4.0865Zm-27.3568-3.0349l7.9828,1.3962-6.2898,7.7134-1.6929-9.1096Zm1.0098,9.437l-5.0684-1.4602,3.4489-7.2529,1.6195,8.7132Zm8.4085-8.3571l7.7858-5.169,1.9354,9.494-9.7211-4.325Zm9.4557,5.0079l-7.4596,4.8287-2.2217-9.1364,9.6813,4.3076Zm-9.9172-5.58l-.7864-6.8734,8.3629,1.8428-7.5765,5.0307Zm1.7383,10.5478l-8.5325-1.3635,6.3167-7.7469,2.2158,9.1104Zm-.063.7312l-3.7249,7.5331-4.7585-8.8892,8.4834,1.356Zm.6754.2858l6.5145,5.18-10.2327,2.3385,3.7182-7.5185Zm.4995-.5383l7.4034-4.7923-.8707,9.9875-6.5326-5.1952Zm8.1398-4.8089l6.1725,4.747-7.0392,5.1922.8667-9.9392Zm-.0536-1.2878l-1.8731-9.1878,7.1235,5.902-5.2504,3.2859Zm5.0744-4.3824l-6.5093-5.3935,4.5476-.0441,1.9617,5.4376Zm-3.3735-6.156l-3.9834.0388-3.0144-3.19,6.9979,3.1512Zm-8.618-3.8004l3.3946,3.593-7.497-1.6522,4.1024-1.9408Zm-3.0901.6519l-2.2156,1.0479-2.1874-.0479,4.403-1Zm-7.1474,1.6721l4.6827.1028.8203,7.1731-8.1685-1.4292,2.6654-5.8466Zm-1.7615,2.0992l-1.7128,3.7579-2.2534,1.1426,3.9662-4.9006Zm-4.9695,6.2296l2.7455-1.3919-2.9029,6.1044.1574-4.7124Zm-.3438,10.2856l.0371-1.1107.7002,2.9194-.7373-1.8086Zm.2645-3.3025l5.0512,1.4556-3.0009,7.0936-2.0503-8.5492Zm5.5879,2.0659l4.7224,8.8209-7.8421-1.4467,3.1197-7.3742Zm3.665,13.1476l-5.9651-4.8781,7.2162,1.3311-1.2511,3.547Zm.6806.2699l1.254-3.5549,6.5369,3.9128-7.7909-.3579Zm9.0661.2685l-7.0383-4.2136,10.1048-2.3093-3.0665,6.5229Zm.9573-.3156l2.9244-6.2215,4.3089,2.3859-7.2332,3.8355Zm7.7887-4.3644l-4.3528-2.4108,6.7126-4.9507-2.3598,7.3615Zm1.2038-1.3569l1.8751-5.8514.853,2.2965-2.7281,3.5549Zm2.8895-5.2228l-.6548-1.7625,1.0009-3.4718-.346,5.2343Zm-1.2427-2.3658l-6.2443-4.8019,5.4569-3.4157,2.5476,2.1113-1.7602,6.1064Z"/><polygon class="d" points="311.8005 16.2139 545.7582 17.7139 311.8005 19.2139 311.8005 16.2139 311.8005 16.2139"/><polygon class="d" points="233.9577 19.2139 0 17.7139 233.9577 16.2139 233.9577 19.2139 233.9577 19.2139"/></g></svg>