<?xml version="1.0" standalone="no"?>
<!DOCTYPE svg PUBLIC "-//W3C//DTD SVG 20010904//EN"
 "http://www.w3.org/TR/2001/REC-SVG-20010904/DTD/svg10.dtd">
<svg version="1.0" xmlns="http://www.w3.org/2000/svg"
 width="260.000000pt" height="260.000000pt" viewBox="0 0 260.000000 260.000000"
 preserveAspectRatio="xMidYMid meet">
<metadata>
Created by potrace 1.14, written by Peter Selinger 2001-2017
</metadata>
<g transform="translate(0.000000,260.000000) scale(0.100000,-0.100000)"
fill="#000000" stroke="none">
<path d="M0 1300 l0 -1300 1300 0 1300 0 0 1300 0 1300 -1300 0 -1300 0 0
-1300z m1670 1071 l335 -128 185 -227 185 -226 58 -345 57 -344 -136 -278
-136 -278 -255 -194 -256 -194 -339 -23 -340 -23 -257 142 -257 141 -177 253
-178 252 -14 288 c-8 158 -17 320 -19 358 l-5 70 227 325 227 324 370 117
c204 65 375 118 380 118 6 1 161 -57 345 -128z"/>
<path d="M1226 2355 c-54 -59 -96 -108 -94 -111 7 -6 640 -65 645 -60 5 4
-433 276 -445 276 -4 0 -52 -47 -106 -105z"/>
<path d="M977 2360 c-153 -48 -281 -90 -284 -94 -4 -3 14 -6 38 -7 24 0 112
-4 194 -8 l150 -8 28 26 c46 41 170 181 161 180 -5 0 -134 -40 -287 -89z"/>
<path d="M1610 2329 c63 -39 146 -89 183 -112 l69 -40 45 22 c25 12 42 26 37
30 -9 8 -430 171 -442 171 -4 0 45 -32 108 -71z"/>
<path d="M596 2228 c-9 -27 -85 -472 -81 -476 4 -5 519 445 523 457 2 5 -88
12 -200 16 -112 3 -211 9 -221 11 -9 3 -19 -1 -21 -8z"/>
<path d="M1120 2203 c0 -5 25 -67 55 -138 38 -87 53 -131 46 -138 -6 -6 -12
-9 -15 -6 -2 2 -29 65 -61 139 -32 74 -59 136 -60 138 -2 2 -126 -103 -277
-234 -150 -131 -275 -239 -277 -241 -2 -2 -2 -5 0 -7 3 -4 668 -86 692 -86 4
0 7 -7 7 -15 0 -8 -3 -15 -8 -15 -4 0 -155 18 -336 40 -181 22 -339 40 -352
40 l-23 0 40 -117 c44 -132 44 -134 25 -127 -8 3 -29 49 -47 102 -17 54 -35
101 -39 105 -4 5 -54 -107 -110 -250 -56 -142 -110 -279 -120 -304 l-19 -47
252 -86 c139 -48 256 -86 260 -86 5 0 5 5 2 10 -11 18 22 10 36 -9 13 -17 51
-21 408 -45 216 -15 395 -25 397 -23 2 2 -5 30 -16 62 -24 69 -25 86 -6 79 8
-3 25 -35 37 -71 l21 -65 52 51 c28 28 60 51 71 51 15 0 4 -15 -43 -63 l-62
-62 216 -119 c118 -65 217 -116 218 -114 1 1 23 178 48 391 l46 389 -158 391
c-87 215 -162 392 -167 394 -4 1 -102 -104 -218 -233 -115 -129 -220 -244
-232 -256 -23 -21 -23 -21 -23 -1 0 11 88 117 220 263 121 135 220 247 220
250 0 3 -136 18 -302 33 -167 16 -324 31 -350 34 -27 3 -48 2 -48 -4z m245
-308 c37 -36 34 -88 -5 -125 l-31 -29 11 -88 c35 -272 104 -443 178 -443 64 0
144 75 202 190 31 61 31 65 16 91 -25 43 -21 94 10 118 15 12 38 21 51 21 31
0 83 -51 83 -82 0 -30 -26 -67 -54 -78 -19 -7 -24 -18 -29 -71 -14 -131 -4
-223 28 -249 25 -20 62 -3 119 57 53 55 54 58 40 84 -16 32 -3 83 26 99 49 26
120 -11 120 -63 0 -29 -35 -77 -56 -77 -17 0 -35 -40 -90 -199 -49 -143 -54
-147 -156 -121 -318 82 -635 89 -948 23 -69 -15 -143 -27 -164 -27 -39 -1 -40
0 -61 54 -12 30 -38 102 -59 160 -32 93 -40 107 -66 117 -76 29 -51 143 31
143 51 0 86 -70 59 -119 -7 -15 2 -30 49 -80 65 -67 94 -76 127 -40 17 19 19
37 19 156 0 122 -2 137 -19 147 -49 29 -60 44 -60 80 0 48 31 80 78 80 68 0
98 -68 60 -134 -16 -26 -16 -30 13 -88 57 -113 141 -192 205 -192 73 0 138
156 173 413 l16 118 -30 28 c-23 22 -31 38 -31 64 0 76 92 116 145 62z m181
-340 c90 -29 144 -51 148 -61 8 -20 0 -18 -176 38 -84 26 -128 45 -128 54 0 8
3 14 7 14 3 0 70 -20 149 -45z m383 -121 c42 -12 50 -18 41 -29 -9 -11 -21
-10 -72 7 -42 14 -56 23 -47 29 18 11 17 11 78 -7z"/>
<path d="M1267 1872 c-33 -36 -8 -92 40 -92 25 0 53 30 53 57 0 46 -62 69 -93
35z"/>
<path d="M1290 1579 c-26 -180 -82 -336 -137 -379 -73 -57 -205 18 -279 160
l-23 45 -1 -100 c-1 -155 -35 -211 -117 -190 -16 3 -52 31 -81 61 -30 31 -52
49 -50 42 1 -7 23 -70 48 -140 31 -88 50 -128 60 -128 9 0 64 11 124 25 329
74 636 72 975 -6 52 -12 97 -17 101 -13 5 5 29 67 55 138 l45 129 -59 -56
c-46 -45 -66 -57 -91 -57 -73 0 -100 52 -100 192 l0 91 -39 -59 c-38 -58 -83
-106 -131 -137 -28 -19 -91 -22 -121 -6 -55 29 -114 176 -144 359 -10 58 -19
106 -20 108 -1 2 -8 -34 -15 -79z"/>
<path d="M780 1580 c-25 -25 -25 -42 -2 -63 51 -46 115 19 66 67 -21 21 -40
20 -64 -4z"/>
<path d="M1771 1583 c-23 -16 -28 -52 -9 -71 34 -34 102 14 79 56 -14 26 -45
33 -70 15z"/>
<path d="M525 1350 c-15 -17 -16 -24 -7 -45 15 -32 55 -34 76 -3 32 45 -31 89
-69 48z"/>
<path d="M2022 1358 c-32 -32 -1 -85 42 -74 31 8 40 33 21 62 -17 26 -44 31
-63 12z"/>
<path d="M1942 2181 l-52 -26 166 -125 c92 -69 174 -129 183 -134 15 -8 15 -8
0 10 -8 10 -64 80 -124 154 -60 74 -111 138 -114 142 -3 3 -30 -6 -59 -21z"/>
<path d="M365 1915 c-102 -147 -185 -268 -183 -270 2 -2 69 13 148 33 l145 37
41 230 c23 127 40 231 39 233 -1 2 -87 -117 -190 -263z"/>
<path d="M2032 1778 c167 -415 157 -392 163 -386 3 3 34 83 69 179 36 96 67
182 71 191 5 13 -41 52 -210 177 -118 89 -217 161 -220 161 -2 0 55 -145 127
-322z"/>
<path d="M2340 1685 c-6 -16 -38 -101 -70 -187 l-58 -158 116 -95 c64 -52 117
-93 119 -92 2 3 -85 535 -91 552 -2 6 -9 -3 -16 -20z"/>
<path d="M300 1641 c-125 -33 -145 -40 -143 -57 3 -42 65 -460 69 -474 4 -11
199 459 230 553 7 21 18 23 -156 -22z"/>
<path d="M2167 968 c-21 -183 -41 -342 -44 -353 -5 -18 -3 -18 9 -5 8 8 84
122 168 253 128 200 151 240 139 251 -27 24 -227 186 -231 186 -1 0 -20 -150
-41 -332z"/>
<path d="M172 1195 c0 -33 4 -94 7 -135 6 -67 8 -72 18 -49 9 20 8 50 -3 125
-18 123 -23 135 -22 59z"/>
<path d="M260 994 c0 -9 263 -554 266 -551 2 2 55 90 118 195 l115 193 -27 10
c-59 23 -456 159 -464 159 -4 0 -8 -3 -8 -6z"/>
<path d="M206 955 c-9 -21 -15 -44 -13 -49 5 -13 205 -297 218 -311 9 -9 -131
290 -173 370 l-16 29 -16 -39z"/>
<path d="M2294 798 c-15 -24 -56 -87 -91 -141 -34 -54 -63 -100 -63 -102 0 -2
12 0 28 6 22 8 40 34 95 144 68 137 79 169 31 93z"/>
<path d="M837 798 c15 -17 430 -521 449 -546 3 -4 290 476 300 501 4 12 1 17
-12 17 -11 0 -170 11 -354 25 -184 14 -350 25 -369 25 l-34 0 20 -22z"/>
<path d="M664 614 c-63 -107 -114 -197 -112 -198 7 -6 683 -164 687 -161 3 4
-448 555 -455 555 -2 0 -56 -88 -120 -196z"/>
<path d="M1616 738 c-73 -116 -283 -478 -276 -478 19 0 695 256 699 264 1 5
-57 43 -131 83 -73 41 -165 92 -205 114 l-72 40 -15 -23z"/>
<path d="M1737 372 c-283 -105 -363 -138 -345 -143 13 -4 86 -15 164 -24 l141
-17 194 148 c187 142 229 175 219 173 -3 0 -171 -62 -373 -137z"/>
<path d="M650 356 c0 -8 376 -209 390 -208 34 3 194 71 180 76 -14 5 -560 136
-567 136 -2 0 -3 -2 -3 -4z"/>
<path d="M1227 183 c-37 -14 -66 -27 -64 -29 2 -3 82 1 177 8 177 12 192 20
60 32 -41 4 -82 9 -90 11 -8 2 -46 -8 -83 -22z"/>
</g>
</svg>
